<svg xmlns="http://www.w3.org/2000/svg" width="704" height="535" viewBox="0 0 704 535">
<g>
<path d="M 155.14 422.99 C151.14,424.59 135.50,424.93 132.57,423.48 C129.83,422.12 129.27,417.45 131.69,416.21 C132.69,415.69 137.96,415.22 143.41,415.15 C154.03,415.01 156.56,414.12 159.62,409.45 C161.68,406.32 161.94,397.12 160.07,393.63 C157.78,389.34 153.38,388.00 141.62,388.00 C131.17,388.00 131.03,387.97 130.41,385.50 C129.12,380.37 129.96,380.00 142.72,380.01 C152.99,380.02 155.15,380.32 159.56,382.38 C163.85,384.37 165.06,385.60 167.48,390.36 C174.14,403.53 168.86,417.50 155.14,422.99 ZM 289.63 255.00 C288.54,255.00 286.90,255.69 285.97,256.53 C283.81,258.48 282.66,257.19 281.01,251.00 C280.35,248.52 279.43,245.76 278.96,244.85 C278.49,243.94 277.79,238.68 277.41,233.17 L 276.72 223.14 L 280.61 222.34 C282.75,221.89 287.65,221.65 291.50,221.80 C303.68,222.28 428.40,222.46 430.75,222.01 C431.99,221.77 433.00,221.22 433.00,220.79 C433.00,219.40 447.47,219.89 449.46,221.35 C451.89,223.12 450.62,225.16 447.71,224.17 C446.50,223.75 431.55,223.72 414.50,224.10 C397.45,224.49 360.72,224.85 332.87,224.90 C292.24,224.98 282.03,225.26 281.15,226.32 C280.02,227.68 281.71,239.05 283.27,240.61 C283.67,241.01 284.00,243.20 284.00,245.48 C284.00,247.75 284.63,250.48 285.40,251.53 C286.67,253.26 287.28,253.33 292.15,252.30 C296.36,251.41 297.71,251.44 298.50,252.43 C299.25,253.38 307.84,253.90 332.50,254.47 C350.65,254.90 372.48,255.60 381.00,256.04 C397.11,256.86 366.54,256.54 321.20,255.41 C306.39,255.05 299.96,255.25 297.45,256.16 C294.77,257.12 293.73,257.13 292.80,256.20 C292.14,255.54 290.71,255.00 289.63,255.00 ZM 434.00 217.23 C434.00,217.65 432.76,218.00 431.25,218.00 L 428.50 218.00 L 431.23 215.65 C432.73,214.36 433.75,213.01 433.48,212.65 C433.22,212.29 433.30,212.23 433.67,212.50 C434.67,213.26 438.04,209.88 437.37,208.79 C437.05,208.28 437.66,206.87 438.73,205.68 C440.81,203.33 443.30,199.21 448.78,189.00 C454.68,178.02 457.08,166.28 456.83,149.66 C456.65,138.12 456.58,137.79 454.23,136.90 C450.81,135.60 445.38,137.22 433.00,143.22 C425.46,146.88 420.87,149.88 416.73,153.89 C413.56,156.95 409.85,160.05 408.49,160.76 C405.49,162.33 405.14,163.77 404.63,176.50 C404.20,187.22 403.31,192.69 401.87,193.58 C401.34,193.91 401.28,191.73 401.73,188.32 C402.15,185.12 402.50,178.23 402.50,173.00 L 402.50 163.50 L 406.50 159.84 C416.20,150.96 422.17,146.48 428.89,143.05 C431.28,141.84 433.44,140.02 433.71,139.00 C434.32,136.66 442.46,133.14 450.12,131.90 C457.59,130.70 459.88,131.73 459.80,136.25 C459.77,138.04 460.24,141.30 460.85,143.50 C462.84,150.72 461.75,170.18 459.00,176.50 C458.52,177.60 457.82,179.62 457.46,181.00 C456.45,184.78 450.95,195.98 447.90,200.50 C446.41,202.70 442.68,207.19 439.60,210.48 C436.52,213.77 434.00,216.80 434.00,217.23 ZM 301.33 208.12 C301.81,208.46 300.78,208.95 299.05,209.21 C296.61,209.56 295.65,209.21 294.81,207.65 C293.80,205.76 293.12,204.83 290.46,201.72 C287.54,198.28 277.00,174.31 277.00,171.09 C277.00,170.01 276.62,168.88 276.15,168.59 C274.65,167.67 272.70,153.24 273.25,147.19 C273.54,143.98 273.38,140.65 272.90,139.79 C271.21,136.76 274.41,135.66 282.98,136.32 C292.64,137.06 298.00,139.07 298.00,141.95 C298.00,144.41 297.36,144.45 290.43,142.44 C287.48,141.58 283.36,141.02 281.28,141.19 L 277.50 141.50 L 277.76 150.41 C277.91,155.31 278.42,159.81 278.90,160.41 C279.38,161.01 280.35,164.20 281.05,167.50 C281.76,170.80 282.65,173.95 283.03,174.50 C283.42,175.05 284.32,177.30 285.02,179.50 C287.07,185.89 298.66,206.22 301.33,208.12 ZM 539.28 422.88 C537.29,421.82 536.45,421.89 533.96,423.37 C532.33,424.33 530.97,424.98 530.92,424.81 C530.18,421.81 530.36,421.19 531.85,421.65 C533.29,422.10 533.28,421.98 531.75,420.72 C530.79,419.93 530.01,418.65 530.02,417.89 C530.03,416.77 530.24,416.79 531.09,418.00 C531.93,419.19 532.26,419.23 532.68,418.19 C533.09,417.16 533.59,417.23 535.01,418.51 C536.70,420.04 537.09,419.87 541.27,415.82 C543.72,413.44 546.24,410.52 546.86,409.32 C547.55,408.00 548.00,401.73 548.00,393.51 L 548.00 379.88 L 555.50 380.50 L 555.50 396.58 C555.50,412.52 555.48,412.69 552.79,416.21 C551.30,418.16 548.19,420.74 545.87,421.95 C542.25,423.84 541.31,423.97 539.28,422.88 ZM 603.96 422.07 C603.01,423.85 601.73,424.00 587.66,424.00 C571.52,424.00 570.00,423.60 570.00,419.34 C570.00,415.69 572.95,415.00 588.46,415.00 L 603.05 415.00 L 604.02 417.57 C604.67,419.27 604.65,420.78 603.96,422.07 ZM 600.36 405.49 C599.53,406.32 598.33,406.90 597.68,406.78 C597.03,406.67 591.13,406.43 584.56,406.25 C577.92,406.07 572.04,405.45 571.31,404.84 C569.54,403.37 569.66,400.49 571.57,398.57 C573.79,396.35 600.13,396.25 601.96,398.45 C603.32,400.09 602.61,403.25 600.36,405.49 ZM 603.99 386.51 C602.10,388.79 571.48,388.70 570.61,386.42 C569.54,383.65 569.95,381.23 571.58,380.61 C572.45,380.27 580.09,380.00 588.56,380.00 L 603.96 380.00 L 604.59 382.51 C604.95,383.95 604.70,385.66 603.99,386.51 ZM 216.25 422.24 C214.90,423.43 211.34,423.88 200.77,424.17 C193.21,424.38 186.19,424.24 185.15,423.86 C182.29,422.80 181.80,419.20 184.18,416.82 C186.38,414.62 190.70,414.76 198.00,417.29 C203.02,419.03 204.63,420.74 201.75,421.29 C200.51,421.53 202.28,421.79 205.67,421.86 C213.41,422.03 215.00,421.42 215.00,418.27 C215.00,416.15 215.23,415.95 216.50,417.00 C218.48,418.64 218.40,420.34 216.25,422.24 ZM 428.42 347.75 C428.14,349.54 427.48,351.00 426.95,351.00 C425.77,351.00 425.77,350.60 426.98,343.92 C427.52,340.94 429.10,328.60 430.50,316.50 C431.90,304.40 433.47,291.35 433.99,287.50 C434.52,283.65 435.25,277.18 435.62,273.11 C436.19,266.79 436.45,266.04 437.43,267.87 C438.21,269.32 438.31,272.00 437.75,276.25 C437.30,279.69 436.29,289.25 435.50,297.50 C434.17,311.43 433.26,316.40 430.82,323.11 C430.30,324.55 429.91,328.15 429.97,331.11 C430.05,336.09 429.78,338.99 428.42,347.75 ZM 216.07 385.33 L 215.05 388.00 L 199.69 388.00 C191.24,388.00 184.03,387.70 183.67,387.33 C182.36,386.02 183.01,381.21 184.58,380.61 C188.28,379.19 194.40,380.13 200.48,383.07 C208.92,387.14 214.21,386.93 215.09,382.50 C215.53,380.29 215.87,379.92 216.38,381.08 C216.77,381.95 216.62,383.86 216.07,385.33 ZM 213.81 401.75 L 213.50 405.50 L 198.94 405.78 C190.94,405.93 184.07,405.74 183.69,405.36 C182.13,403.80 183.04,399.05 185.11,397.94 C188.76,395.99 201.60,399.06 199.33,401.34 C198.96,401.70 199.53,402.01 200.58,402.02 C202.19,402.03 202.25,402.19 201.00,403.00 C199.94,403.68 201.35,403.97 205.75,403.98 L 212.00 404.00 L 212.00 401.00 C212.00,399.35 212.48,398.00 213.06,398.00 C213.67,398.00 213.99,399.58 213.81,401.75 ZM 337.00 162.32 C337.00,163.79 336.52,165.00 335.93,165.00 C335.21,165.00 335.08,163.09 335.52,159.25 C337.57,141.67 344.69,124.02 354.06,113.36 C356.89,110.14 360.17,105.81 361.35,103.74 C362.57,101.61 364.15,100.09 364.99,100.25 C367.18,100.65 367.41,103.73 365.31,104.47 C361.53,105.81 345.63,128.13 343.49,135.12 C343.08,136.43 342.42,137.95 342.01,138.50 C341.60,139.05 340.72,142.65 340.06,146.50 C339.40,150.35 338.44,154.88 337.93,156.57 C337.42,158.26 337.00,160.85 337.00,162.32 ZM 445.00 424.07 C445.00,425.23 443.92,425.24 442.09,424.08 C441.00,423.39 441.23,423.10 443.09,422.84 C445.50,422.50 445.50,422.48 445.50,409.50 L 445.50 396.50 L 442.75 396.18 C438.90,395.74 439.12,393.00 443.00,393.00 L 446.00 393.00 L 446.00 386.50 C446.00,382.27 446.40,380.00 447.15,380.00 C447.97,380.00 448.13,382.55 447.71,388.98 C447.38,394.15 447.53,398.21 448.07,398.54 C448.58,398.86 449.00,404.24 449.00,410.49 C449.00,420.99 448.85,421.91 447.00,422.50 C445.90,422.85 445.00,423.55 445.00,424.07 ZM 401.00 217.94 C401.00,218.52 400.24,219.00 399.31,219.00 C397.94,219.00 398.10,218.49 400.17,216.25 C403.65,212.49 419.65,188.62 422.62,182.76 C424.75,178.57 427.00,176.52 427.00,178.79 C427.00,179.71 424.12,185.41 421.84,189.00 C414.71,200.21 410.89,205.82 409.10,207.71 C407.94,208.92 407.00,210.35 407.00,210.87 C407.00,211.39 405.65,212.96 404.00,214.35 C402.35,215.73 401.00,217.35 401.00,217.94 ZM 450.20 260.18 C448.76,261.64 440.41,261.93 432.46,260.79 C429.73,260.41 424.12,259.65 420.00,259.10 L 412.50 258.12 L 422.84 258.41 C430.81,258.64 433.30,258.39 433.70,257.35 C434.43,255.44 446.95,255.51 449.56,257.43 C451.16,258.61 451.27,259.10 450.20,260.18 ZM 308.92 318.00 C309.29,318.83 309.30,321.30 308.94,323.50 C308.58,325.70 308.22,326.51 308.14,325.30 C307.98,322.85 299.22,276.50 298.39,273.75 C298.10,272.79 298.35,272.00 298.93,272.00 C299.52,272.00 300.00,272.87 300.00,273.94 C300.00,275.01 300.40,276.13 300.90,276.44 C301.39,276.74 302.33,280.93 302.99,285.74 C303.65,290.56 304.65,295.48 305.22,296.67 C305.79,297.86 306.05,300.22 305.80,301.92 C305.55,303.61 305.69,305.00 306.10,305.00 C306.52,305.00 307.17,307.59 307.55,310.75 C307.94,313.91 308.55,317.17 308.92,318.00 ZM 312.73 420.86 C310.82,422.04 308.19,422.99 306.88,422.98 C304.96,422.96 305.28,422.60 308.54,421.12 C316.42,417.54 320.95,409.84 321.09,399.78 C321.16,394.29 321.29,393.88 322.13,396.50 C323.81,401.74 324.04,403.85 323.01,404.50 C322.45,404.84 322.00,406.37 322.00,407.91 C322.00,411.43 317.25,418.06 312.73,420.86 ZM 235.99 401.25 C236.08,404.07 235.71,406.00 235.07,406.00 C234.44,406.00 234.00,403.83 234.00,400.75 C234.01,394.41 236.77,389.29 241.05,387.68 C243.52,386.74 244.00,386.01 244.00,383.17 C244.00,380.50 244.33,379.91 245.58,380.39 C246.45,380.73 247.35,381.00 247.58,381.00 C247.81,381.00 248.00,381.61 248.00,382.35 C248.00,384.12 244.42,387.87 239.75,391.00 C235.80,393.65 235.73,393.82 235.99,401.25 ZM 450.79 238.99 C450.59,246.16 450.12,249.46 449.25,249.75 C447.36,250.38 446.67,247.45 447.46,242.20 C447.86,239.62 448.50,234.80 448.90,231.50 C449.98,222.46 451.12,226.98 450.79,238.99 ZM 394.61 217.54 C392.05,220.10 391.89,219.13 394.17,214.75 C395.38,212.41 397.35,207.18 398.54,203.13 C400.10,197.81 400.86,196.35 401.26,197.88 C401.56,199.05 401.45,200.00 401.00,200.00 C400.55,200.00 400.42,200.87 400.69,201.94 C400.97,203.01 400.07,206.27 398.69,209.19 C397.31,212.11 396.15,214.85 396.12,215.29 C396.10,215.72 395.41,216.73 394.61,217.54 ZM 287.41 395.62 C287.70,396.38 287.50,397.00 286.97,397.00 C283.49,397.00 288.76,389.42 293.67,387.37 C296.42,386.22 297.00,385.44 297.00,382.90 C297.00,380.88 297.43,379.98 298.25,380.28 C301.49,381.42 297.29,390.00 293.48,390.00 C291.37,390.00 286.86,394.18 287.41,395.62 ZM 339.00 189.00 C339.00,190.59 338.61,192.12 338.13,192.42 C337.65,192.72 336.75,189.00 336.13,184.16 C334.74,173.31 334.70,169.00 336.00,169.00 C336.58,169.00 337.00,172.31 337.00,176.94 C337.00,181.31 337.45,185.16 338.00,185.50 C338.55,185.84 339.00,187.41 339.00,189.00 ZM 343.79 417.00 C343.50,423.49 343.50,423.50 340.34,423.81 C338.61,423.97 336.91,423.67 336.57,423.12 C336.23,422.56 337.39,421.99 339.23,421.81 L 342.50 421.50 L 342.79 414.25 C343.08,407.10 343.13,407.00 345.79,407.02 L 348.50 407.04 L 346.29 408.77 C344.49,410.18 344.03,411.69 343.79,417.00 ZM 313.30 347.37 C311.61,349.06 310.00,347.78 309.99,344.75 C309.99,342.96 309.70,338.46 309.35,334.75 C308.90,329.98 309.05,328.00 309.86,328.00 C310.61,328.00 311.00,330.48 311.00,335.28 C311.00,340.05 311.50,343.27 312.46,344.65 C313.27,345.80 313.65,347.02 313.30,347.37 ZM 262.00 419.15 C260.07,420.69 256.92,422.22 255.00,422.55 L 251.50 423.14 L 255.51 421.23 C259.25,419.44 264.01,414.81 266.63,410.40 C268.55,407.19 269.05,409.39 267.22,412.98 C266.27,414.84 263.92,417.62 262.00,419.15 ZM 505.79 401.74 C506.14,406.57 505.88,407.80 504.19,409.33 C502.19,411.13 502.19,411.12 503.17,406.82 C503.72,404.45 503.95,400.55 503.69,398.16 C503.36,395.08 503.54,394.14 504.30,394.90 C504.89,395.49 505.56,398.57 505.79,401.74 ZM 301.53 421.96 C301.25,422.40 299.65,422.97 297.98,423.22 C295.89,423.52 295.26,423.34 295.97,422.63 C296.54,422.06 297.01,420.23 297.03,418.55 L 297.06 415.50 L 299.55 418.32 C300.91,419.87 301.80,421.51 301.53,421.96 ZM 421.42 424.39 C421.26,424.45 421.11,424.51 420.98,424.56 C420.41,424.79 420.08,424.92 419.77,424.89 C419.31,424.85 418.87,424.46 417.66,423.54 C415.95,422.24 416.05,422.12 419.12,421.82 C421.67,421.57 422.57,420.93 423.07,419.00 C423.68,416.69 423.79,416.65 424.54,418.44 C425.07,419.69 424.94,420.52 424.18,420.77 C423.53,420.99 423.00,421.76 423.00,422.48 C423.00,423.20 422.29,424.06 421.42,424.39 ZM 503.87 422.23 C502.71,424.41 499.30,426.29 498.58,425.14 C498.29,424.66 498.94,423.46 500.02,422.48 C501.11,421.49 502.00,420.07 502.00,419.31 C502.00,418.17 502.25,418.15 503.39,419.21 C504.35,420.09 504.50,421.05 503.87,422.23 ZM 248.00 420.46 C248.00,421.13 246.89,422.18 245.53,422.80 C243.14,423.89 243.08,423.83 243.68,420.71 C244.01,418.95 244.44,417.32 244.62,417.11 C245.20,416.42 248.00,419.20 248.00,420.46 ZM 268.80 393.41 C268.55,395.14 267.72,395.54 264.00,395.71 C259.37,395.92 259.44,395.63 264.26,394.57 C266.69,394.03 266.94,393.62 266.35,391.23 C265.73,388.74 265.82,388.62 267.38,389.91 C268.33,390.69 268.96,392.26 268.80,393.41 ZM 372.84 421.50 C372.44,423.75 368.44,424.64 366.00,423.02 C364.84,422.25 365.19,422.03 367.55,422.02 C369.23,422.01 371.18,421.44 371.90,420.75 C372.95,419.74 373.13,419.88 372.84,421.50 ZM 343.08 207.68 C343.67,208.27 344.01,210.05 343.82,211.63 L 343.49 214.50 L 342.76 212.00 C341.65,208.21 341.79,206.39 343.08,207.68 ZM 436.53 209.19 C436.83,209.50 436.28,210.06 435.29,210.44 C433.87,210.98 433.75,210.86 434.73,209.88 C435.41,209.19 436.22,208.89 436.53,209.19 Z" fill="rgb(134,105,60)"/>
<path d="M 503.87 422.23 C504.50,421.05 504.35,420.09 503.39,419.21 C502.25,418.15 502.00,418.17 502.00,419.31 C502.00,420.07 501.11,421.49 500.02,422.48 C499.03,423.38 498.40,424.46 498.53,425.00 C497.76,424.80 496.92,424.42 496.01,423.86 C493.31,422.21 492.28,422.05 490.55,422.97 C489.38,423.60 485.51,424.19 481.96,424.28 C476.78,424.41 474.66,423.97 471.25,422.04 C468.91,420.71 467.00,419.04 467.00,418.32 C467.00,417.59 466.58,417.00 466.06,417.00 C465.55,417.00 464.56,415.42 463.86,413.50 C463.17,411.58 462.30,410.00 461.94,410.00 C460.61,410.00 460.04,400.72 461.11,396.47 C462.44,391.18 467.85,384.63 473.07,381.97 C478.27,379.31 488.67,379.28 493.79,381.90 C501.43,385.80 506.03,393.82 505.99,403.19 C505.96,409.11 505.02,411.00 502.08,411.00 C498.15,411.00 497.00,409.24 497.00,403.25 C497.00,396.17 494.87,392.30 489.68,389.94 C484.89,387.77 477.99,387.41 476.15,389.25 C475.46,389.94 474.36,390.50 473.70,390.50 C471.90,390.50 469.00,397.02 469.02,401.00 C469.05,404.85 471.85,411.81 474.14,413.71 C474.94,414.37 477.46,415.21 479.74,415.57 L 483.87 416.24 L 484.19 411.88 C484.45,408.26 484.97,407.29 487.25,406.21 C490.63,404.59 491.11,404.88 498.83,413.26 C504.16,419.04 504.91,420.30 504.01,421.99 C503.11,423.66 502.09,424.67 500.87,425.03 C502.01,424.45 503.26,423.38 503.87,422.23 ZM 248.00 420.46 C248.00,419.20 245.20,416.42 244.62,417.11 C244.44,417.32 244.01,418.95 243.68,420.71 C243.17,423.35 243.14,423.80 244.59,423.22 C242.98,424.05 242.48,424.02 239.50,423.26 C237.37,422.72 232.17,419.00 233.55,419.00 C234.00,419.00 233.19,417.76 231.75,416.25 C228.17,412.50 227.00,408.95 227.00,401.87 C227.00,393.41 230.66,385.87 236.41,382.50 C240.01,380.39 241.94,380.00 248.76,380.00 C258.22,380.00 260.95,381.22 265.85,387.59 C266.57,388.53 267.16,389.37 267.62,390.13 C267.54,390.05 267.46,389.98 267.38,389.91 C265.82,388.62 265.73,388.74 266.35,391.23 C266.94,393.62 266.69,394.03 264.26,394.57 C262.14,395.03 260.93,395.35 260.65,395.55 C259.77,395.12 259.16,394.24 258.16,392.55 C257.01,390.60 255.37,389.00 254.52,389.00 C253.68,389.00 252.21,388.10 251.27,387.00 C249.12,384.49 247.93,384.49 244.91,387.01 C243.58,388.12 241.20,390.06 239.62,391.32 C237.31,393.16 236.65,394.62 236.26,398.69 C235.56,405.88 237.21,409.83 242.99,414.80 L 247.98 419.10 L 250.18 417.05 C251.39,415.92 252.80,415.00 253.32,415.00 C253.83,415.00 256.00,413.42 258.13,411.50 C261.71,408.26 266.54,406.87 268.25,408.59 C269.44,409.77 266.73,415.03 263.45,417.91 C263.21,418.12 262.96,418.33 262.72,418.53 C264.48,416.95 266.39,414.61 267.22,412.98 C269.05,409.39 268.55,407.19 266.63,410.40 C264.01,414.81 259.25,419.44 255.51,421.23 L 251.50 423.14 L 255.00 422.55 C256.72,422.25 259.44,420.99 261.37,419.63 C256.75,423.17 252.84,424.38 249.74,423.21 C248.12,422.60 246.74,422.44 245.64,422.75 C246.95,422.13 248.00,421.11 248.00,420.46 ZM 536.43 419.39 C535.98,419.33 535.56,419.01 535.01,418.51 C533.59,417.23 533.09,417.16 532.68,418.19 C532.26,419.23 531.93,419.19 531.09,418.00 C530.24,416.79 530.03,416.77 530.02,417.89 C530.01,418.65 530.79,419.93 531.75,420.72 C533.28,421.98 533.29,422.10 531.85,421.65 C530.46,421.22 530.21,421.73 530.78,424.20 C530.08,424.04 529.24,423.64 528.00,423.00 C524.39,421.14 521.53,417.87 518.65,412.30 C517.35,409.77 517.00,406.18 517.00,395.25 C517.00,380.13 517.38,379.00 522.45,379.00 L 525.50 379.00 L 525.15 392.12 C524.74,407.18 525.04,408.17 532.21,415.23 ZM 399.94 206.10 C400.56,204.25 400.88,202.63 400.69,201.94 C400.42,200.87 400.55,200.00 401.00,200.00 C401.45,200.00 401.56,199.05 401.26,197.88 C400.86,196.35 400.10,197.81 398.54,203.13 C397.35,207.18 395.38,212.41 394.17,214.75 C393.28,216.46 392.76,217.64 392.61,218.31 C392.67,217.74 393.11,216.74 393.98,215.04 C396.09,210.91 396.59,208.52 395.17,209.40 C394.71,209.68 394.33,209.26 394.33,208.46 C394.33,207.66 394.92,207.00 395.63,207.00 C398.23,207.00 398.61,203.06 398.33,179.00 C398.00,149.82 397.87,147.75 396.26,145.81 C395.58,144.99 395.31,144.02 395.68,143.66 C396.04,143.30 395.78,143.00 395.11,143.00 C394.38,143.00 394.20,142.49 394.66,141.75 C395.09,141.06 395.30,139.44 395.13,138.14 C394.60,134.01 397.31,136.30 398.61,141.07 C399.28,143.51 400.28,146.85 400.85,148.50 C401.41,150.15 402.24,153.30 402.69,155.49 C403.75,160.71 406.30,161.29 408.54,156.81 C412.44,149.03 428.02,138.75 441.78,134.05 C437.44,135.60 434.09,137.53 433.71,139.00 C433.44,140.02 431.28,141.84 428.89,143.05 C422.17,146.48 416.20,150.96 406.50,159.84 L 402.50 163.50 L 402.50 173.00 C402.50,178.23 402.15,185.12 401.73,188.32 C401.28,191.73 401.34,193.91 401.87,193.58 C402.44,193.23 402.92,192.17 403.32,190.36 C402.36,197.22 401.12,203.13 399.94,206.10 ZM 436.41 288.35 C436.95,283.11 437.47,278.44 437.75,276.25 C438.31,272.00 438.21,269.32 437.43,267.87 C436.45,266.04 436.19,266.79 435.62,273.11 C435.25,277.18 434.52,283.65 433.99,287.50 C433.47,291.35 431.90,304.40 430.50,316.50 C429.10,328.60 427.52,340.94 426.98,343.92 C426.09,348.83 425.85,350.35 426.26,350.81 C426.09,350.81 425.91,350.80 425.70,350.78 C424.49,350.65 415.96,350.42 406.75,350.25 C396.73,350.07 390.00,349.56 390.00,348.98 C390.00,348.44 391.10,348.00 392.44,348.00 C393.78,348.00 395.12,347.62 395.41,347.15 C396.19,345.88 412.83,345.04 418.00,346.01 C421.14,346.60 422.85,346.50 423.64,345.68 C424.27,345.03 425.28,340.23 425.87,335.00 C427.41,321.48 429.81,305.12 430.38,304.20 C430.65,303.76 431.39,296.68 432.03,288.46 C433.17,273.73 434.78,265.91 436.80,265.23 C438.55,264.65 438.92,268.19 437.90,275.50 C437.55,277.97 436.98,282.93 436.41,288.35 ZM 287.24 396.93 C285.95,399.88 285.99,400.94 287.00,403.99 C287.70,406.11 288.00,408.56 287.67,409.42 C287.28,410.43 288.34,412.28 290.58,414.51 C292.52,416.45 293.84,418.45 293.52,418.97 C293.20,419.48 293.86,420.39 294.97,420.99 C295.79,421.42 296.28,421.62 296.57,421.46 C296.40,421.99 296.19,422.41 295.97,422.63 C295.26,423.34 295.89,423.52 297.98,423.22 C299.22,423.03 300.41,422.68 301.06,422.32 C298.97,424.11 293.42,423.92 289.75,421.88 C285.46,419.50 282.89,416.25 280.01,409.53 C277.58,403.86 277.47,399.54 279.60,394.37 C281.48,389.82 285.95,383.62 286.77,384.44 C287.08,384.75 288.24,384.22 289.34,383.25 C291.26,381.57 291.31,381.58 290.61,383.50 C290.03,385.10 290.13,385.25 291.14,384.25 C292.80,382.60 293.67,382.67 293.67,384.46 C293.67,385.26 293.38,385.74 293.04,385.52 C292.69,385.31 291.83,385.49 291.12,385.93 C289.17,387.13 291.85,387.89 294.55,386.97 C294.29,387.10 293.99,387.23 293.67,387.37 C288.76,389.42 283.49,397.00 286.97,397.00 C287.07,397.00 287.16,396.98 287.24,396.93 ZM 434.00 217.23 C434.00,217.22 434.00,217.22 434.00,217.22 C434.05,218.72 438.05,220.00 442.74,220.00 C444.90,220.00 446.85,220.34 448.30,220.88 C444.29,219.80 433.00,219.56 433.00,220.79 C433.00,221.22 431.99,221.77 430.75,222.01 C429.90,222.17 412.98,222.25 391.18,222.27 C392.32,221.98 392.78,221.57 393.27,221.00 C394.72,219.31 394.75,219.00 393.47,219.00 C393.23,219.00 393.03,218.98 392.89,218.91 C393.22,218.81 393.79,218.35 394.61,217.54 C395.41,216.73 396.10,215.72 396.12,215.29 C396.15,214.90 397.08,212.66 398.27,210.10 C398.10,210.70 398.00,211.24 398.00,211.63 C398.00,213.74 405.95,205.44 408.66,200.50 C409.57,198.85 411.70,195.72 413.40,193.54 C418.74,186.71 422.04,182.56 424.04,180.29 C423.58,180.98 423.10,181.82 422.62,182.76 C419.65,188.62 403.65,212.49 400.17,216.25 C398.10,218.49 397.94,219.00 399.31,219.00 C400.24,219.00 401.00,218.52 401.00,217.94 C401.00,217.35 402.35,215.73 404.00,214.35 C404.38,214.03 404.74,213.70 405.07,213.38 C404.88,213.60 404.68,213.81 404.47,214.03 C402.87,215.70 402.17,217.29 402.58,218.34 C403.11,219.73 404.77,219.99 412.86,219.96 C418.53,219.94 423.37,219.43 424.61,218.71 C426.69,217.51 438.41,204.88 442.74,199.17 C443.70,197.89 444.78,196.23 445.87,194.37 C442.33,200.77 440.40,203.79 438.73,205.68 C437.66,206.87 437.05,208.28 437.37,208.79 C438.04,209.88 434.67,213.26 433.67,212.50 C433.30,212.23 433.22,212.29 433.48,212.65 C433.75,213.01 432.73,214.36 431.23,215.65 L 428.50 218.00 L 431.25 218.00 C432.76,218.00 434.00,217.65 434.00,217.23 ZM 281.63 141.17 C283.80,141.08 287.64,141.62 290.43,142.44 C297.36,144.45 298.00,144.41 298.00,141.95 C298.00,140.81 297.16,139.81 295.56,138.97 C302.14,140.83 308.97,143.48 314.32,146.65 C316.98,148.22 320.04,150.01 321.13,150.62 C322.23,151.24 324.50,153.16 326.19,154.88 C328.41,157.16 330.04,157.95 332.14,157.79 C332.96,157.73 333.54,157.73 334.02,157.51 C335.39,156.87 335.91,154.41 338.56,143.50 C339.64,139.09 341.70,133.82 344.23,128.73 C339.88,137.87 336.76,148.57 335.52,159.25 C335.19,162.13 335.18,163.92 335.50,164.64 C334.69,164.37 333.93,164.85 333.68,165.81 C333.34,167.09 333.20,167.13 333.12,165.99 C333.05,165.17 331.54,163.86 329.75,163.10 C327.96,162.33 324.49,160.08 322.03,158.10 C319.58,156.12 316.65,154.02 315.53,153.42 C314.41,152.83 310.53,150.74 306.90,148.77 C299.20,144.59 287.02,140.95 281.63,141.17 ZM 308.92 318.00 C308.55,317.17 307.94,313.91 307.55,310.75 C307.17,307.59 306.52,305.00 306.10,305.00 C305.69,305.00 305.55,303.61 305.80,301.92 C305.88,301.36 305.91,300.73 305.89,300.10 C306.83,304.67 308.27,313.05 309.97,324.00 C310.18,325.33 310.38,327.11 310.54,329.00 C310.36,328.33 310.13,328.00 309.86,328.00 C309.05,328.00 308.90,329.98 309.35,334.75 C309.70,338.46 309.99,342.96 309.99,344.75 C310.00,346.50 310.54,347.67 311.32,348.01 C310.15,347.95 308.93,347.29 308.52,346.25 C307.56,343.81 305.93,335.37 305.39,330.00 C305.13,327.52 304.52,321.08 304.03,315.68 C303.53,310.28 302.70,305.33 302.18,304.68 C301.66,304.03 300.72,299.00 300.08,293.50 C299.44,288.00 298.29,281.02 297.51,278.00 C295.55,270.35 294.57,262.00 295.63,262.00 C296.81,262.00 298.72,266.59 299.57,271.50 C299.66,272.02 299.76,272.55 299.88,273.05 C299.70,272.43 299.34,272.00 298.93,272.00 C298.35,272.00 298.10,272.79 298.39,273.75 C299.22,276.50 307.98,322.85 308.14,325.30 C308.22,326.51 308.58,325.70 308.94,323.50 C309.30,321.30 309.29,318.83 308.92,318.00 ZM 445.06 255.99 C446.47,256.00 448.49,256.64 449.56,257.43 C446.95,255.51 434.43,255.44 433.70,257.35 C433.30,258.39 430.81,258.64 422.84,258.41 L 412.50 258.12 L 420.00 259.10 C421.94,259.36 424.22,259.66 426.36,259.95 C414.25,258.84 393.96,257.51 379.50,257.01 C368.15,256.62 358.14,256.30 349.37,256.05 C378.00,256.62 393.46,256.67 381.00,256.04 C378.40,255.91 374.55,255.75 369.95,255.58 C395.32,256.15 397.23,256.05 396.64,254.51 C396.05,252.96 397.01,252.88 408.25,253.49 C414.99,253.86 425.45,254.57 431.50,255.07 C437.55,255.57 443.65,255.99 445.06,255.99 ZM 333.28 211.25 C333.64,212.21 333.84,212.99 333.72,212.98 C333.13,212.94 326.81,207.00 327.35,207.00 C328.15,207.00 325.20,203.35 322.25,200.68 C321.01,199.56 320.00,198.16 319.99,197.57 C319.99,196.98 318.38,194.81 316.43,192.75 C314.47,190.69 313.15,189.00 313.49,189.00 C313.83,189.00 313.02,187.99 311.70,186.75 C310.38,185.51 308.77,183.49 308.12,182.25 C307.10,180.33 307.18,180.00 308.64,180.00 C311.92,180.00 332.85,203.81 331.50,206.00 C331.16,206.55 331.99,207.43 333.34,207.94 C335.98,208.94 337.57,210.77 336.62,211.71 C336.31,212.03 335.28,211.66 334.34,210.89 C332.83,209.67 332.70,209.71 333.28,211.25 ZM 332.20 222.17 C311.96,222.09 295.54,221.96 291.50,221.80 C287.65,221.65 282.75,221.89 280.61,222.34 L 279.26 222.62 C281.21,221.83 284.76,221.72 291.00,221.32 C302.43,220.58 303.88,219.50 299.61,214.90 C298.29,213.48 296.44,210.81 295.48,208.96 C294.52,207.11 293.24,205.03 292.62,204.33 C291.84,203.45 291.22,202.72 290.65,201.93 C293.15,204.88 293.83,205.81 294.81,207.65 C295.65,209.21 296.61,209.56 299.05,209.21 C300.40,209.01 301.32,208.67 301.43,208.37 C302.11,209.24 302.74,210.01 303.33,210.67 C304.89,212.41 306.92,215.34 307.84,217.17 L 309.50 220.50 L 320.75 220.78 C327.13,220.94 332.00,221.48 332.00,222.03 C332.00,222.08 332.07,222.12 332.20,222.17 ZM 216.45 380.84 C216.62,381.37 216.65,382.16 216.58,382.99 C216.64,382.22 216.58,381.51 216.38,381.08 C215.87,379.92 215.53,380.29 215.09,382.50 C214.21,386.93 208.92,387.14 200.48,383.07 C194.40,380.13 188.28,379.19 184.58,380.61 C183.75,380.93 183.18,382.42 183.01,383.95 C183.05,383.47 183.11,382.93 183.18,382.33 L 183.50 379.50 L 199.67 379.23 C214.80,378.97 215.89,379.07 216.45,380.84 ZM 213.86 400.46 C213.84,398.98 213.54,398.00 213.06,398.00 C212.48,398.00 212.00,399.35 212.00,401.00 L 212.00 404.00 L 205.75 403.98 C201.35,403.97 199.94,403.68 201.00,403.00 C202.25,402.19 202.19,402.03 200.58,402.02 C199.53,402.01 198.96,401.70 199.33,401.34 C201.22,399.45 192.71,397.02 187.67,397.35 C193.82,396.47 208.50,395.95 211.80,396.71 C213.63,397.13 214.00,397.66 213.86,400.46 ZM 216.95 417.41 C216.82,417.28 216.67,417.14 216.50,417.00 C215.23,415.95 215.00,416.15 215.00,418.27 C215.00,421.42 213.41,422.03 205.67,421.86 C202.28,421.79 200.51,421.53 201.75,421.29 C204.63,420.74 203.02,419.03 198.00,417.29 C193.96,415.89 190.84,415.22 188.48,415.28 C190.82,415.04 194.52,415.00 200.83,415.00 L 215.66 415.00 ZM 341.60 254.70 C338.52,254.62 335.46,254.54 332.50,254.47 C307.84,253.90 299.25,253.38 298.50,252.43 C298.16,252.01 297.72,251.76 297.00,251.68 C301.84,251.27 309.29,251.00 316.81,251.00 C332.21,251.00 335.00,251.23 335.00,252.48 C335.00,253.70 335.58,254.29 341.60,254.70 ZM 445.27 420.44 C444.93,420.37 444.36,420.36 443.64,420.44 C441.27,420.69 439.42,418.91 440.71,417.62 C441.03,417.31 441.19,413.23 441.08,408.57 C440.90,400.97 441.09,399.96 442.94,398.81 C444.70,397.70 445.27,396.87 444.67,396.40 L 445.50 396.50 L 445.50 409.50 C445.50,415.43 445.50,418.66 445.27,420.44 ZM 424.58 418.52 C424.57,418.50 424.55,418.47 424.54,418.44 C423.79,416.65 423.68,416.69 423.07,419.00 C422.84,419.89 422.52,420.51 422.00,420.94 L 422.00 401.00 C422.00,387.67 422.37,380.00 423.00,380.00 C423.63,380.00 424.01,386.76 424.01,398.25 C424.02,407.97 424.27,416.89 424.58,418.52 ZM 235.99 401.25 C235.73,393.82 235.80,393.65 239.75,391.00 C244.42,387.87 248.00,384.12 248.00,382.35 C248.00,381.61 247.81,381.00 247.58,381.00 C247.35,381.00 246.45,380.73 245.58,380.39 C244.33,379.91 244.00,380.50 244.00,383.17 C244.00,386.01 243.52,386.74 241.05,387.68 C236.77,389.29 234.01,394.41 234.00,400.75 C234.00,403.83 234.44,406.00 235.07,406.00 C235.71,406.00 236.08,404.07 235.99,401.25 ZM 440.04 394.16 C440.21,393.49 440.86,393.00 441.62,393.00 C442.93,393.00 443.01,392.72 442.04,391.55 C440.68,389.91 440.96,384.09 442.49,382.35 C443.19,381.56 443.89,381.52 444.75,382.22 C445.66,382.96 446.00,382.80 446.00,381.62 C446.00,380.73 446.52,380.00 447.15,380.00 C446.40,380.00 446.00,382.27 446.00,386.50 L 446.00 393.00 L 443.00 393.00 C441.30,393.00 440.30,393.53 440.04,394.16 ZM 505.79 401.74 C505.56,398.57 504.89,395.49 504.30,394.90 C503.54,394.14 503.36,395.08 503.69,398.16 C503.95,400.55 503.72,404.45 503.17,406.82 C502.19,411.12 502.19,411.13 504.19,409.33 C505.88,407.80 506.14,406.57 505.79,401.74 ZM 394.38 408.80 C394.65,409.24 394.56,412.73 394.17,416.55 C393.35,424.69 392.00,423.05 392.00,413.92 C392.00,408.63 392.98,406.53 394.38,408.80 ZM 334.36 346.50 C334.05,347.33 333.05,347.92 332.14,347.83 C331.24,347.73 328.59,347.48 326.25,347.27 C319.62,346.67 321.26,345.00 328.47,345.00 C333.81,345.00 334.84,345.26 334.36,346.50 ZM 338.09 192.44 C338.06,192.46 338.03,192.48 338.00,192.50 C337.43,192.85 336.99,191.92 336.97,190.31 C336.93,187.17 334.73,183.63 333.51,184.77 C333.08,185.17 333.06,184.15 333.47,182.50 C333.87,180.85 334.42,177.14 334.69,174.25 C334.81,173.05 334.94,172.06 335.08,171.29 C334.95,173.59 335.30,177.72 336.13,184.16 C336.73,188.86 337.60,192.50 338.09,192.44 ZM 430.98 328.00 C430.22,335.01 429.66,339.49 428.86,344.85 C429.84,338.27 430.04,335.49 429.97,331.11 C429.91,328.15 430.30,324.55 430.82,323.11 C431.58,321.02 432.19,319.10 432.71,317.02 C432.14,319.45 431.41,323.99 430.98,328.00 ZM 443.09 422.84 C441.79,423.02 441.28,423.22 441.48,423.56 L 441.44 423.53 C439.67,422.19 439.65,422.05 441.25,421.91 C443.82,421.68 444.58,421.56 445.15,421.14 C444.84,422.59 444.23,422.68 443.09,422.84 ZM 415.76 154.81 C416.09,154.50 416.41,154.19 416.73,153.89 C420.69,150.06 425.07,147.14 432.04,143.69 C426.40,146.79 420.63,150.67 415.76,154.81 ZM 287.41 395.62 C286.86,394.20 291.26,390.11 293.40,390.00 C293.26,390.06 293.12,390.11 292.98,390.16 C290.79,390.92 289.30,392.52 287.81,395.68 C287.72,395.88 287.63,396.07 287.54,396.26 C287.54,396.07 287.50,395.85 287.41,395.62 ZM 404.41 180.83 C404.49,179.49 404.57,178.05 404.63,176.50 C405.14,163.77 405.49,162.33 408.49,160.76 C408.72,160.64 409.00,160.46 409.33,160.23 C408.48,160.89 407.80,161.38 407.42,161.61 C405.76,162.56 405.41,164.33 404.86,174.61 C404.75,176.66 404.60,178.74 404.41,180.83 ZM 321.83 255.43 C306.87,255.23 299.30,255.49 297.39,256.18 C294.76,257.13 293.74,257.13 292.80,256.20 C293.74,257.13 294.77,257.12 297.45,256.16 C299.96,255.25 306.39,255.05 321.20,255.41 ZM 436.53 209.19 C436.22,208.89 435.41,209.19 434.73,209.88 C433.75,210.86 433.87,210.98 435.29,210.44 C436.28,210.06 436.83,209.50 436.53,209.19 ZM 445.00 424.07 C445.00,423.55 445.90,422.85 447.00,422.50 C447.32,422.40 447.59,422.29 447.81,422.12 C447.55,422.48 447.23,422.80 446.85,423.13 C445.99,423.87 445.38,424.37 444.86,424.64 C444.95,424.50 445.00,424.31 445.00,424.07 ZM 423.09 422.91 C422.99,423.01 422.89,423.11 422.79,423.21 C422.92,422.96 423.00,422.71 423.00,422.48 C423.00,421.76 423.53,420.99 424.18,420.77 C424.35,420.72 424.50,420.63 424.60,420.51 C424.38,421.32 423.88,422.12 423.09,422.91 ZM 301.10 207.94 C299.67,206.63 296.46,201.62 293.25,196.03 C295.87,200.45 298.68,204.75 301.10,207.94 ZM 448.78 189.00 L 448.58 189.37 C450.88,184.85 452.90,180.10 453.70,177.00 C454.59,173.54 455.26,170.67 455.74,167.97 C454.52,175.81 452.26,182.53 448.78,189.00 ZM 436.55 261.25 C439.00,261.46 441.38,261.53 443.44,261.47 C440.27,261.74 437.10,261.76 436.64,261.31 C436.63,261.29 436.59,261.27 436.55,261.25 ZM 296.60 388.34 C297.86,387.03 298.88,385.15 299.25,383.52 C299.10,385.00 298.52,386.62 297.59,387.55 C297.35,387.80 297.00,388.06 296.60,388.34 ZM 283.10 187.37 C279.42,179.38 277.00,172.98 277.00,171.09 C277.00,172.78 279.91,180.21 283.10,187.37 ZM 301.87 279.35 C301.49,277.69 301.14,276.59 300.90,276.44 C300.40,276.13 300.00,275.01 300.00,273.94 C300.00,273.73 299.98,273.52 299.95,273.33 C300.30,274.83 300.73,276.10 301.04,276.50 C301.24,276.76 301.54,277.82 301.87,279.35 ZM 214.71 423.02 C212.77,423.73 209.23,423.96 200.77,424.19 C193.74,424.38 187.18,424.26 185.46,423.94 C187.18,424.26 193.74,424.37 200.77,424.17 C208.65,423.95 212.63,423.65 214.71,423.02 ZM 266.53 395.48 C265.93,395.63 265.21,395.74 264.37,395.80 C262.98,395.90 262.03,395.93 261.29,395.77 C261.86,395.79 262.76,395.76 264.00,395.71 C265.06,395.66 265.89,395.59 266.53,395.48 ZM 447.19 137.26 C450.40,136.32 452.56,136.26 454.23,136.90 C452.67,136.30 450.21,136.48 447.19,137.26 ZM 281.35 136.21 C277.63,136.01 275.10,136.20 273.72,136.81 C275.20,136.10 277.92,135.92 281.35,136.21 ZM 450.62 223.81 C450.25,224.40 449.33,224.58 448.21,224.31 C450.59,224.88 451.61,223.26 449.88,221.69 C450.75,222.32 451.08,223.07 450.62,223.81 ZM 417.83 423.67 C417.74,423.61 417.65,423.54 417.56,423.47 C416.05,422.33 415.83,422.07 417.45,422.01 C416.10,422.24 416.34,422.54 417.66,423.54 C417.71,423.58 417.77,423.63 417.83,423.67 ZM 337.00 162.32 C337.00,160.85 337.42,158.26 337.93,156.57 C337.42,158.26 337.00,160.90 337.00,162.43 C337.00,163.74 336.83,164.46 336.43,164.69 C336.77,164.24 337.00,163.35 337.00,162.32 ZM 284.14 257.35 C284.68,257.45 285.27,257.16 285.97,256.53 C285.98,256.52 285.99,256.51 286.00,256.50 L 285.99 256.51 C285.36,257.28 284.74,257.55 284.14,257.35 ZM 280.31 248.57 C280.55,249.36 280.80,250.20 281.01,251.00 C281.45,252.64 281.85,253.93 282.24,254.92 C281.83,253.96 281.43,252.73 281.05,251.23 C280.82,250.35 280.57,249.43 280.31,248.57 ZM 432.83 316.55 C433.16,315.16 433.46,313.70 433.74,312.07 C433.45,313.95 433.18,315.34 432.98,316.00 C432.93,316.16 432.88,316.34 432.83,316.55 ZM 421.42 424.39 C421.43,424.39 421.44,424.39 421.45,424.38 C420.99,424.70 420.60,424.85 420.19,424.85 C420.40,424.79 420.65,424.70 420.98,424.56 C421.11,424.51 421.26,424.45 421.42,424.39 ZM 440.05 394.84 C440.21,395.24 440.65,395.62 441.39,395.88 C440.66,395.71 440.19,395.35 440.05,394.84 ZM 184.13 416.87 C183.07,417.96 182.60,419.29 182.67,420.52 C182.58,419.30 183.03,417.97 184.07,416.93 C184.09,416.91 184.11,416.89 184.13,416.87 ZM 448.07 398.54 C448.58,398.86 449.00,404.10 449.00,410.19 C448.99,404.07 448.57,398.86 448.07,398.54 ZM 289.63 255.00 C290.02,255.00 290.46,255.07 290.89,255.19 C290.23,255.04 289.52,255.01 288.84,255.09 C289.12,255.03 289.39,255.00 289.63,255.00 ZM 428.42 347.75 C428.25,348.80 428.07,349.53 427.80,350.01 C428.05,349.42 428.28,348.62 428.42,347.75 ZM 277.09 228.44 L 277.41 233.17 C277.28,231.29 277.15,229.73 277.09,228.44 ZM 311.61 342.46 C311.85,343.42 312.14,344.18 312.46,344.65 C312.12,344.15 311.83,343.42 311.61,342.46 ZM 426.84 178.03 C426.96,178.14 427.00,178.37 427.00,178.71 C427.00,178.71 427.00,178.72 427.00,178.73 C426.99,178.40 426.94,178.17 426.84,178.03 ZM 443.64 424.84 C443.41,424.79 443.16,424.69 442.88,424.53 C443.16,424.67 443.41,424.77 443.64,424.84 ZM 277.76 237.30 C277.63,236.01 277.52,234.64 277.42,233.25 C277.52,234.64 277.63,236.01 277.76,237.30 ZM 299.69 418.49 C299.94,418.78 300.17,419.07 300.37,419.34 C300.16,419.06 299.94,418.78 299.69,418.49 ZM 268.76 393.64 C268.75,393.69 268.74,393.73 268.73,393.78 C268.74,393.73 268.75,393.69 268.76,393.64 Z" fill="rgb(182,164,118)"/>
<path d="M 343.79 417.00 C343.91,414.29 344.09,412.57 344.48,411.35 C344.13,412.61 344.00,414.30 344.00,416.50 C344.00,421.83 343.67,423.11 342.07,423.96 C339.47,425.35 337.47,425.27 336.18,423.71 C334.99,422.28 334.36,402.85 335.44,401.10 C335.87,400.40 340.32,400.00 347.60,400.00 C358.47,400.00 359.22,399.87 361.55,397.55 C368.13,390.96 360.61,386.59 343.61,387.13 C335.59,387.39 334.47,387.21 334.17,385.66 C333.99,384.69 334.56,382.80 335.44,381.45 C336.99,379.09 337.46,379.00 348.27,379.01 C362.07,379.01 366.18,380.05 369.48,384.39 C373.46,389.60 372.31,400.44 367.45,403.62 C364.77,405.38 364.28,408.12 366.28,410.18 C368.25,412.20 371.14,417.40 372.22,420.45 C372.13,420.53 372.02,420.63 371.90,420.75 C371.18,421.44 369.23,422.01 367.55,422.02 C365.19,422.03 364.84,422.25 366.00,423.02 C368.22,424.50 371.74,423.89 372.65,422.07 C372.67,422.28 372.66,422.45 372.61,422.57 C371.81,424.67 364.68,424.44 362.83,422.25 C362.01,421.29 360.13,417.95 358.64,414.83 C356.18,409.68 355.58,409.10 352.04,408.51 C349.47,408.07 347.68,408.05 346.45,408.65 L 348.50 407.04 L 345.79 407.02 C343.13,407.00 343.08,407.10 342.79,414.25 L 342.50 421.50 L 339.23 421.81 C337.39,421.99 336.23,422.56 336.57,423.12 C336.91,423.67 338.61,423.97 340.34,423.81 C343.50,423.50 343.50,423.49 343.79,417.00 ZM 417.83 423.67 C418.48,424.17 418.89,424.49 419.21,424.68 C418.67,424.57 417.97,424.43 417.27,424.30 C416.04,424.06 414.14,422.66 413.03,421.18 C411.93,419.71 410.57,417.96 410.01,417.29 C409.45,416.63 409.00,415.67 409.00,415.15 C409.00,414.64 407.44,412.48 405.52,410.36 C403.61,408.24 402.04,406.19 402.02,405.81 C402.01,405.43 400.31,403.11 398.25,400.66 C396.19,398.21 393.00,393.72 391.17,390.68 C389.34,387.64 387.20,384.91 386.42,384.61 C382.41,383.07 386.74,377.64 391.13,378.70 C393.77,379.33 400.29,385.95 402.66,390.40 C403.51,391.99 405.28,394.37 406.60,395.69 C407.92,397.01 409.00,398.72 409.00,399.49 C409.00,401.29 413.49,406.18 414.35,405.32 C414.71,404.96 415.00,399.37 415.00,392.90 C415.00,379.69 415.99,377.28 420.89,378.51 C422.32,378.87 423.58,379.25 423.68,379.35 C423.79,379.45 423.97,389.16 424.08,400.93 C424.11,404.48 424.14,407.46 424.15,409.95 C424.07,406.55 424.02,402.48 424.01,398.25 C424.01,386.76 423.63,380.00 423.00,380.00 C422.37,380.00 422.00,387.67 422.00,401.00 L 422.00 420.94 C421.39,421.44 420.49,421.69 419.12,421.82 C418.41,421.89 417.86,421.95 417.45,422.01 C415.83,422.07 416.05,422.33 417.56,423.47 C417.65,423.54 417.74,423.61 417.83,423.67 ZM 333.28 211.25 C332.70,209.71 332.83,209.67 334.34,210.89 C335.28,211.66 336.31,212.03 336.62,211.71 C337.57,210.77 335.98,208.94 333.34,207.94 C331.99,207.43 331.16,206.55 331.50,206.00 C332.17,204.92 327.42,198.59 322.04,192.44 C324.48,195.22 326.86,198.11 328.78,200.72 C331.31,204.18 333.81,207.00 334.33,207.00 C335.48,207.00 334.66,193.86 333.39,191.89 C332.48,190.47 331.94,183.53 332.03,174.32 C332.08,169.89 330.68,164.75 329.13,162.81 C329.35,162.92 329.56,163.01 329.75,163.10 C331.54,163.86 333.05,165.17 333.12,165.99 C333.20,167.13 333.34,167.09 333.68,165.81 C333.93,164.85 334.69,164.37 335.50,164.64 C335.61,164.88 335.75,165.00 335.93,165.00 C336.11,165.00 336.28,164.89 336.43,164.69 C336.83,164.46 337.00,163.74 337.00,162.43 C337.00,161.49 337.16,160.14 337.40,158.85 C336.97,162.00 336.81,167.62 336.88,172.91 C336.71,170.51 336.39,169.00 336.00,169.00 C335.47,169.00 335.16,169.71 335.08,171.29 C334.94,172.06 334.81,173.05 334.69,174.25 C334.42,177.14 333.87,180.85 333.47,182.50 C333.06,184.15 333.08,185.17 333.51,184.77 C334.73,183.63 336.93,187.17 336.97,190.31 C336.99,191.92 337.43,192.85 338.00,192.50 C338.03,192.48 338.06,192.46 338.09,192.44 C338.10,192.43 338.11,192.43 338.13,192.42 C338.43,192.23 338.70,191.54 338.86,190.66 C338.74,194.89 341.72,206.71 343.14,207.59 C343.61,207.88 344.00,210.14 344.00,212.60 C344.00,215.07 344.56,217.69 345.25,218.44 C346.77,220.09 358.99,220.26 363.68,218.70 C365.96,217.95 367.25,217.96 368.19,218.74 C369.06,219.47 372.99,219.65 379.73,219.28 L 389.94 218.71 L 391.47 213.45 C392.31,210.56 393.00,207.46 393.00,206.56 C393.00,205.66 393.65,203.93 394.45,202.71 C395.87,200.55 397.47,191.95 398.37,182.07 C398.57,203.40 398.12,207.00 395.63,207.00 C394.92,207.00 394.33,207.66 394.33,208.46 C394.33,209.26 394.71,209.68 395.17,209.40 C396.59,208.52 396.09,210.91 393.98,215.04 C393.11,216.74 392.67,217.74 392.61,218.31 C392.50,218.80 392.59,219.01 392.89,218.91 C393.03,218.98 393.23,219.00 393.47,219.00 C394.75,219.00 394.72,219.31 393.27,221.00 C392.78,221.57 392.32,221.98 391.18,222.27 C372.76,222.28 350.86,222.24 332.20,222.17 C332.07,222.12 332.00,222.08 332.00,222.03 C332.00,221.48 327.13,220.94 320.75,220.78 L 309.50 220.50 L 308.35 218.19 C308.42,218.27 308.50,218.35 308.57,218.43 C309.82,219.68 312.55,220.00 321.96,220.00 C336.11,220.00 336.91,219.32 330.91,212.40 C328.71,209.85 327.11,207.55 327.37,207.30 C327.39,207.28 327.41,207.25 327.42,207.22 C328.19,208.29 333.20,212.95 333.72,212.98 C333.84,212.99 333.64,212.21 333.28,211.25 ZM 301.53 421.96 C301.74,421.61 301.25,420.54 300.37,419.34 L 300.37 419.34 C300.17,419.07 299.94,418.78 299.69,418.49 C299.64,418.44 299.60,418.38 299.55,418.32 L 297.06 415.50 L 297.03 418.55 C297.02,419.57 296.84,420.64 296.57,421.46 C296.28,421.62 295.79,421.42 294.97,420.99 C293.86,420.39 293.20,419.48 293.52,418.97 C293.84,418.45 292.52,416.45 290.58,414.51 C288.34,412.28 287.28,410.43 287.67,409.42 C287.98,408.62 287.73,406.43 287.13,404.41 C287.45,405.21 287.85,406.13 288.34,407.22 C290.23,411.49 291.36,412.75 294.24,413.78 C296.20,414.48 298.35,415.72 299.02,416.53 C300.59,418.42 300.64,418.41 304.17,415.75 C311.62,410.15 313.00,407.95 313.00,401.71 C313.00,394.52 312.00,392.55 307.09,390.04 C304.52,388.74 303.01,387.16 302.55,385.32 L 301.85 382.57 L 299.03 385.80 C298.82,386.04 298.59,386.28 298.35,386.52 C298.84,385.64 299.15,384.55 299.25,383.52 C299.61,381.99 299.39,380.68 298.25,380.28 C297.43,379.98 297.00,380.88 297.00,382.90 C297.00,385.14 296.55,386.01 294.55,386.97 C291.85,387.89 289.17,387.13 291.12,385.93 C291.83,385.49 292.69,385.31 293.04,385.52 C293.38,385.74 293.67,385.26 293.67,384.46 C293.67,382.67 292.80,382.60 291.14,384.25 C290.13,385.25 290.03,385.10 290.61,383.50 C291.31,381.58 291.26,381.57 289.34,383.25 C288.24,384.22 287.08,384.75 286.77,384.44 C285.95,383.62 281.48,389.82 279.60,394.37 C278.82,396.26 278.34,398.03 278.17,399.80 C278.20,395.64 279.13,391.53 280.91,388.65 C285.08,381.89 296.40,376.80 299.76,380.16 C300.63,381.03 301.29,381.00 302.46,380.03 C306.28,376.86 315.80,381.99 319.13,389.00 C321.47,393.93 323.00,398.38 323.44,401.26 C323.21,400.08 322.78,398.52 322.13,396.50 C321.29,393.88 321.16,394.29 321.09,399.78 C320.95,409.84 316.42,417.54 308.54,421.12 C305.28,422.60 304.96,422.96 306.88,422.98 C307.96,422.99 309.93,422.34 311.66,421.46 C307.30,424.00 302.00,424.86 302.00,423.02 C302.00,422.56 301.52,422.44 300.60,422.65 C300.77,422.55 300.93,422.44 301.06,422.32 C301.29,422.20 301.45,422.07 301.53,421.96 ZM 400.33 146.92 C399.78,145.18 399.10,142.87 398.61,141.07 C397.31,136.30 394.60,134.01 395.13,138.14 C395.30,139.44 395.09,141.06 394.66,141.75 C394.20,142.49 394.38,143.00 395.11,143.00 C395.78,143.00 396.04,143.30 395.68,143.66 C395.31,144.02 395.58,144.99 396.26,145.81 C397.59,147.42 397.91,149.11 398.17,166.08 C397.45,159.37 396.20,152.37 394.99,149.50 C394.52,148.40 393.63,145.82 393.00,143.77 C390.31,134.97 382.02,120.43 375.80,113.60 C374.85,112.55 374.27,111.37 374.52,110.96 C374.77,110.56 374.08,109.99 372.99,109.71 C371.89,109.42 371.00,108.47 371.00,107.59 C371.00,106.72 370.52,106.00 369.94,106.00 C369.36,106.00 369.13,105.59 369.44,105.10 C369.83,104.46 366.97,104.26 365.13,104.54 C365.19,104.51 365.25,104.49 365.31,104.47 C367.41,103.73 367.18,100.65 364.99,100.25 C364.74,100.20 364.43,100.30 364.07,100.52 C365.28,99.56 366.18,99.00 366.58,99.00 C369.63,99.00 375.52,103.96 383.91,113.61 C384.91,114.77 385.91,116.12 386.12,116.62 C387.89,120.82 392.46,127.84 393.14,127.41 C393.61,127.12 394.06,127.47 394.13,128.19 C394.20,128.91 394.36,130.52 394.49,131.77 C394.62,133.02 395.40,134.82 396.22,135.77 C397.04,136.72 398.19,139.30 398.77,141.50 C399.19,143.12 399.81,145.25 400.33,146.92 ZM 334.36 346.50 C334.84,345.26 333.81,345.00 328.47,345.00 C324.10,345.00 321.78,345.61 322.10,346.23 C322.03,346.17 322.00,346.11 322.00,346.05 C322.00,344.43 339.86,343.94 375.96,344.58 C390.24,344.83 403.69,345.23 411.45,345.59 C404.66,345.55 395.97,346.24 395.41,347.15 C395.12,347.62 393.78,348.00 392.44,348.00 C391.10,348.00 390.00,348.44 390.00,348.98 C390.00,349.31 392.17,349.62 395.89,349.85 C391.20,349.70 386.18,349.54 381.00,349.38 C357.11,348.62 342.22,348.07 333.38,347.56 C333.82,347.32 334.19,346.94 334.36,346.50 ZM 341.60 254.70 C335.58,254.29 335.00,253.70 335.00,252.48 C335.00,251.23 332.21,251.00 316.81,251.00 C310.73,251.00 304.69,251.18 300.04,251.46 C318.78,250.27 362.03,251.07 403.09,253.23 C396.71,252.96 396.16,253.24 396.64,254.51 C397.23,256.05 395.32,256.15 369.95,255.58 C361.95,255.29 351.64,254.97 341.60,254.70 ZM 366.39 215.42 C365.55,217.62 363.92,217.40 363.29,215.00 C363.00,213.90 362.37,213.00 361.88,213.00 C361.40,213.00 361.00,212.32 361.00,211.50 C361.00,210.68 361.49,210.00 362.08,210.00 C362.83,210.00 363.11,204.17 362.99,191.25 C362.98,190.35 362.97,189.48 362.96,188.64 C362.77,168.88 362.74,165.62 363.92,165.09 C364.16,164.99 364.44,164.99 364.78,165.00 C364.85,165.00 364.92,165.00 365.00,165.00 C366.95,165.00 367.00,165.67 367.00,189.42 C367.00,202.85 366.73,214.55 366.39,215.42 ZM 363.22 101.22 C362.59,101.85 361.93,102.72 361.35,103.74 C360.17,105.81 356.89,110.14 354.06,113.36 C350.38,117.55 347.05,122.81 344.23,128.73 C341.70,133.82 339.64,139.09 338.56,143.50 C335.91,154.41 335.39,156.87 334.02,157.51 C333.54,157.73 332.96,157.73 332.14,157.79 C331.60,157.83 331.08,157.81 330.58,157.71 C331.90,157.64 332.68,156.04 333.14,152.85 C334.73,141.76 342.20,124.18 348.75,116.15 C353.05,110.88 359.31,104.52 363.22,101.22 ZM 440.04 394.16 C439.95,394.38 439.95,394.61 440.05,394.84 C440.05,394.84 440.05,394.84 440.05,394.84 C440.19,395.35 440.66,395.71 441.39,395.88 C441.76,396.02 442.22,396.12 442.75,396.18 L 444.67 396.40 C445.27,396.87 444.70,397.70 442.94,398.81 C441.09,399.96 440.90,400.97 441.08,408.57 C441.19,413.23 441.03,417.31 440.71,417.62 C439.42,418.91 441.27,420.69 443.64,420.44 C444.36,420.36 444.93,420.37 445.27,420.44 C445.23,420.70 445.20,420.93 445.15,421.14 C444.58,421.56 443.82,421.68 441.25,421.91 C439.65,422.05 439.67,422.19 441.44,423.53 L 441.48 423.56 C441.50,423.60 441.54,423.65 441.58,423.70 C441.48,423.62 441.37,423.54 441.25,423.46 C439.11,421.97 439.06,421.44 439.14,401.42 C439.21,381.27 439.25,380.88 441.47,379.43 C443.17,378.31 444.38,378.20 446.37,378.95 C448.81,379.88 449.00,380.39 449.00,385.92 C449.00,389.20 448.55,392.16 448.00,392.50 C447.84,392.60 447.68,392.79 447.54,393.05 C447.56,391.82 447.62,390.45 447.71,388.98 C448.13,382.55 447.97,380.00 447.15,380.00 C446.52,380.00 446.00,380.73 446.00,381.62 C446.00,382.80 445.66,382.96 444.75,382.22 C443.89,381.52 443.19,381.56 442.49,382.35 C440.96,384.09 440.68,389.91 442.04,391.55 C443.01,392.72 442.93,393.00 441.62,393.00 C440.86,393.00 440.21,393.49 440.04,394.16 ZM 391.44 423.00 C390.19,423.00 388.54,423.24 387.78,423.53 C385.54,424.39 385.00,423.03 385.00,416.49 C385.00,409.82 386.69,407.00 390.71,407.00 C391.90,407.00 392.77,407.25 393.36,407.90 C392.53,407.87 392.00,410.03 392.00,413.92 C392.00,423.05 393.35,424.69 394.17,416.55 C394.29,415.38 394.38,414.24 394.44,413.21 C394.42,414.10 394.36,415.11 394.27,416.25 C393.77,422.45 393.54,423.00 391.44,423.00 ZM 399.94 206.10 C400.80,203.94 401.69,200.21 402.48,195.69 C401.61,200.86 400.63,205.01 399.77,206.75 C399.16,207.99 398.97,209.30 399.35,209.68 C400.06,210.40 404.15,206.72 406.86,203.29 C403.44,208.00 398.00,213.37 398.00,211.63 C398.00,211.24 398.10,210.70 398.27,210.10 C398.40,209.80 398.55,209.50 398.69,209.19 C399.17,208.17 399.60,207.10 399.94,206.10 ZM 343.08 207.68 C341.79,206.39 341.65,208.21 342.76,212.00 L 343.49 214.50 L 343.82 211.63 C344.01,210.05 343.67,208.27 343.08,207.68 ZM 298.34 423.41 C295.75,424.22 294.00,423.99 290.92,422.44 C293.29,423.43 296.14,423.76 298.34,423.41 ZM 442.38 255.87 C439.71,255.71 435.59,255.41 431.50,255.07 C427.84,254.77 422.57,254.39 417.49,254.06 C425.16,254.53 432.65,255.05 439.75,255.62 C440.68,255.69 441.56,255.78 442.38,255.87 ZM 409.96 350.31 C417.86,350.47 424.63,350.67 425.70,350.78 C425.91,350.80 426.09,350.81 426.26,350.81 C426.28,350.83 426.30,350.85 426.32,350.86 C426.14,350.88 425.93,350.88 425.70,350.86 C425.06,350.82 419.01,350.61 409.96,350.31 ZM 301.45 208.30 C302.26,209.33 303.02,210.24 303.73,211.00 C305.50,212.91 306.97,215.00 306.99,215.67 C305.96,213.98 304.51,211.99 303.33,210.67 C302.74,210.01 302.11,209.24 301.43,208.37 C301.44,208.34 301.45,208.32 301.45,208.30 ZM 342.12 138.34 C341.43,140.29 340.60,143.59 340.07,146.60 C339.84,147.93 339.56,149.38 339.26,150.78 C339.55,149.37 339.82,147.89 340.06,146.50 C340.72,142.65 341.60,139.05 342.01,138.50 C342.04,138.45 342.08,138.40 342.12,138.34 ZM 327.49 161.89 C326.47,161.49 324.27,160.00 322.14,158.25 C319.62,156.19 316.65,154.02 315.53,153.42 C316.65,154.02 319.58,156.12 322.03,158.10 C323.67,159.42 325.75,160.85 327.49,161.89 ZM 361.50 107.82 C360.37,109.23 358.90,111.05 357.33,113.00 C356.11,114.52 354.76,116.31 353.41,118.20 C356.24,114.20 359.17,110.41 361.50,107.82 ZM 337.00 177.59 C337.18,181.66 337.52,184.87 338.00,185.50 L 338.00 185.50 C337.48,185.18 337.04,181.68 337.00,177.59 ZM 301.10 207.94 C299.20,205.43 297.06,202.24 294.95,198.84 C297.11,202.30 299.32,205.55 301.29,208.09 C301.23,208.05 301.17,208.00 301.10,207.94 ZM 344.00 133.75 C343.99,133.77 343.99,133.79 343.99,133.80 C343.99,134.08 343.68,134.90 343.24,135.86 C343.33,135.61 343.41,135.36 343.49,135.12 C343.61,134.71 343.78,134.25 344.00,133.75 ZM 327.44 206.98 C327.36,206.46 326.74,205.49 325.77,204.31 C326.95,205.70 327.69,206.82 327.44,206.98 ZM 322.00 407.91 C322.00,409.63 320.99,411.89 319.41,414.16 C320.97,411.87 322.00,409.55 322.00,407.91 ZM 423.09 422.91 C423.16,422.84 423.23,422.76 423.30,422.69 C423.09,423.11 422.82,423.38 422.50,423.63 C422.61,423.49 422.71,423.35 422.79,423.21 C422.89,423.11 422.99,423.01 423.09,422.91 ZM 279.92 409.36 C279.69,408.83 279.48,408.28 279.30,407.71 C279.51,408.30 279.75,408.91 280.01,409.53 C280.77,411.29 281.50,412.81 282.24,414.13 C281.47,412.77 280.71,411.20 279.92,409.36 ZM 293.28 390.05 C293.21,390.07 293.14,390.10 293.08,390.12 C291.76,390.58 290.65,391.36 289.68,392.54 C290.63,391.35 291.68,390.61 292.98,390.16 C293.08,390.12 293.18,390.09 293.28,390.05 ZM 450.70 258.47 C450.54,258.24 450.28,258.00 449.93,257.71 C450.30,257.95 450.56,258.20 450.70,258.47 ZM 446.85 423.13 C445.98,423.88 445.38,424.39 444.86,424.65 L 444.86 424.64 C445.38,424.37 445.99,423.87 446.85,423.13 ZM 420.30 424.85 C420.22,424.87 420.15,424.87 420.09,424.87 C420.12,424.86 420.16,424.86 420.19,424.85 C420.23,424.85 420.26,424.85 420.30,424.85 ZM 308.82 180.02 C308.76,180.01 308.71,180.00 308.66,180.00 C308.71,180.00 308.76,180.01 308.82,180.02 Z" fill="rgb(224,210,159)"/>
<path d="M 0.00 267.50 L 0.00 0.00 L 352.00 0.00 L 704.00 0.00 L 704.00 267.50 L 704.00 535.00 L 352.00 535.00 L 0.00 535.00 L 0.00 267.50 ZM 504.01 421.99 C504.91,420.30 504.16,419.04 498.83,413.26 C491.11,404.88 490.63,404.59 487.25,406.21 C484.97,407.29 484.45,408.26 484.19,411.88 L 483.87 416.24 L 479.74 415.57 C477.46,415.21 474.94,414.37 474.14,413.71 C471.85,411.81 469.05,404.85 469.02,401.00 C469.00,397.02 471.90,390.50 473.70,390.50 C474.36,390.50 475.46,389.94 476.15,389.25 C477.99,387.41 484.89,387.77 489.68,389.94 C494.87,392.30 497.00,396.17 497.00,403.25 C497.00,409.24 498.15,411.00 502.08,411.00 C505.02,411.00 505.96,409.11 505.99,403.19 C506.03,393.82 501.43,385.80 493.79,381.90 C488.67,379.28 478.27,379.31 473.07,381.97 C467.85,384.63 462.44,391.18 461.11,396.47 C460.04,400.72 460.61,410.00 461.94,410.00 C462.30,410.00 463.17,411.58 463.86,413.50 C464.56,415.42 465.55,417.00 466.06,417.00 C466.58,417.00 467.00,417.59 467.00,418.32 C467.00,419.04 468.91,420.71 471.25,422.04 C474.66,423.97 476.78,424.41 481.96,424.28 C485.51,424.19 489.38,423.60 490.55,422.97 C492.28,422.05 493.31,422.21 496.01,423.86 C499.68,426.09 502.12,425.52 504.01,421.99 ZM 155.14 422.99 C168.86,417.50 174.14,403.53 167.48,390.36 C165.06,385.60 163.85,384.37 159.56,382.38 C155.15,380.32 152.99,380.02 142.72,380.01 C129.96,380.00 129.12,380.37 130.41,385.50 C131.03,387.97 131.17,388.00 141.62,388.00 C153.38,388.00 157.78,389.34 160.07,393.63 C161.94,397.12 161.68,406.32 159.62,409.45 C156.56,414.12 154.03,415.01 143.41,415.15 C137.96,415.22 132.69,415.69 131.69,416.21 C129.27,417.45 129.83,422.12 132.57,423.48 C135.50,424.93 151.14,424.59 155.14,422.99 ZM 216.44 421.94 C218.16,420.28 218.22,419.78 217.02,417.53 L 215.66 415.00 L 200.83 415.00 C187.52,415.00 185.80,415.20 184.07,416.93 C181.79,419.21 182.36,422.83 185.15,423.86 C186.19,424.24 193.21,424.39 200.77,424.19 C212.52,423.87 214.78,423.55 216.44,421.94 ZM 342.07 423.96 C343.67,423.11 344.00,421.83 344.00,416.50 C344.00,408.95 345.55,407.41 352.04,408.51 C355.58,409.10 356.18,409.68 358.64,414.83 C360.13,417.95 362.01,421.29 362.83,422.25 C364.68,424.44 371.81,424.67 372.61,422.57 C373.14,421.18 368.90,412.87 366.28,410.18 C364.28,408.12 364.77,405.38 367.45,403.62 C372.31,400.44 373.46,389.60 369.48,384.39 C366.18,380.05 362.07,379.01 348.27,379.01 C337.46,379.00 336.99,379.09 335.44,381.45 C334.56,382.80 333.99,384.69 334.17,385.66 C334.47,387.21 335.59,387.39 343.61,387.13 C360.61,386.59 368.13,390.96 361.55,397.55 C359.22,399.87 358.47,400.00 347.60,400.00 C340.32,400.00 335.87,400.40 335.44,401.10 C334.36,402.85 334.99,422.28 336.18,423.71 C337.47,425.27 339.47,425.35 342.07,423.96 ZM 422.45 423.66 C424.15,422.42 424.27,420.66 424.08,400.93 C423.97,389.16 423.79,379.45 423.68,379.35 C423.58,379.25 422.32,378.87 420.89,378.51 C415.99,377.28 415.00,379.69 415.00,392.90 C415.00,399.37 414.71,404.96 414.35,405.32 C413.49,406.18 409.00,401.29 409.00,399.49 C409.00,398.72 407.92,397.01 406.60,395.69 C405.28,394.37 403.51,391.99 402.66,390.40 C400.29,385.95 393.77,379.33 391.13,378.70 C386.74,377.64 382.41,383.07 386.42,384.61 C387.20,384.91 389.34,387.64 391.17,390.68 C393.00,393.72 396.19,398.21 398.25,400.66 C400.31,403.11 402.01,405.43 402.02,405.81 C402.04,406.19 403.61,408.24 405.52,410.36 C407.44,412.48 409.00,414.64 409.00,415.15 C409.00,415.67 409.45,416.63 410.01,417.29 C410.57,417.96 411.93,419.71 413.03,421.18 C414.14,422.66 416.04,424.06 417.27,424.30 C418.50,424.53 419.75,424.79 420.06,424.86 C420.37,424.94 421.44,424.40 422.45,423.66 ZM 446.85 423.13 C448.81,421.43 449.00,420.28 449.00,410.19 C449.00,403.89 448.57,398.85 448.00,398.50 C447.45,398.16 447.00,396.81 447.00,395.50 C447.00,394.19 447.45,392.84 448.00,392.50 C448.55,392.16 449.00,389.20 449.00,385.92 C449.00,380.39 448.81,379.88 446.37,378.95 C444.38,378.20 443.17,378.31 441.47,379.43 C439.25,380.88 439.21,381.27 439.14,401.42 C439.06,421.44 439.11,421.97 441.25,423.46 C444.02,425.40 444.24,425.39 446.85,423.13 ZM 539.28 422.88 C541.31,423.97 542.25,423.84 545.87,421.95 C548.19,420.74 551.30,418.16 552.79,416.21 C555.48,412.69 555.50,412.52 555.50,396.58 L 555.50 380.50 L 551.75 380.19 L 548.00 379.88 L 548.00 393.51 C548.00,401.73 547.55,408.00 546.86,409.32 C546.24,410.52 543.77,413.40 541.37,415.73 L 537.01 419.96 L 532.21 415.23 C525.04,408.17 524.74,407.18 525.15,392.12 L 525.50 379.00 L 522.45 379.00 C517.38,379.00 517.00,380.13 517.00,395.25 C517.00,406.18 517.35,409.77 518.65,412.30 C521.53,417.87 524.39,421.14 528.00,423.00 C531.24,424.67 531.70,424.69 534.21,423.21 C536.47,421.88 537.31,421.83 539.28,422.88 ZM 244.93 423.04 C246.12,422.40 247.75,422.46 249.74,423.21 C253.30,424.55 257.92,422.76 263.45,417.91 C266.73,415.03 269.44,409.77 268.25,408.59 C266.54,406.87 261.71,408.26 258.13,411.50 C256.00,413.42 253.83,415.00 253.32,415.00 C252.80,415.00 251.39,415.92 250.18,417.05 L 247.98 419.10 L 242.99 414.80 C237.21,409.83 235.56,405.88 236.26,398.69 C236.65,394.62 237.31,393.16 239.62,391.32 C241.20,390.06 243.58,388.12 244.91,387.01 C247.93,384.49 249.12,384.49 251.27,387.00 C252.21,388.10 253.68,389.00 254.52,389.00 C255.37,389.00 257.01,390.60 258.16,392.55 C260.09,395.82 260.59,396.08 264.37,395.80 C269.78,395.41 270.17,393.22 265.85,387.59 C260.95,381.22 258.22,380.00 248.76,380.00 C241.94,380.00 240.01,380.39 236.41,382.50 C230.66,385.87 227.00,393.41 227.00,401.87 C227.00,408.95 228.17,412.50 231.75,416.25 C233.19,417.76 234.00,419.00 233.55,419.00 C232.17,419.00 237.37,422.72 239.50,423.26 C242.68,424.07 243.03,424.05 244.93,423.04 ZM 299.43 423.02 C301.10,422.39 302.00,422.39 302.00,423.02 C302.00,424.87 307.33,424.00 311.70,421.43 C316.98,418.34 322.00,411.75 322.00,407.91 C322.00,406.37 322.45,404.84 323.01,404.50 C324.54,403.55 322.87,396.88 319.13,389.00 C315.80,381.99 306.28,376.86 302.46,380.03 C301.29,381.00 300.63,381.03 299.76,380.16 C296.40,376.80 285.08,381.89 280.91,388.65 C277.68,393.87 277.24,403.18 279.92,409.36 C282.92,416.30 285.46,419.51 289.75,421.83 C294.06,424.17 295.85,424.39 299.43,423.02 ZM 391.44 423.00 C393.54,423.00 393.77,422.45 394.27,416.25 C394.86,409.02 394.08,407.00 390.71,407.00 C386.69,407.00 385.00,409.82 385.00,416.49 C385.00,423.03 385.54,424.39 387.78,423.53 C388.54,423.24 390.19,423.00 391.44,423.00 ZM 603.96 422.07 C604.65,420.78 604.67,419.27 604.02,417.57 L 603.05 415.00 L 588.46 415.00 C572.95,415.00 570.00,415.69 570.00,419.34 C570.00,423.60 571.52,424.00 587.66,424.00 C601.73,424.00 603.01,423.85 603.96,422.07 ZM 600.36 405.49 C602.61,403.25 603.32,400.09 601.96,398.45 C600.13,396.25 573.79,396.35 571.57,398.57 C569.66,400.49 569.54,403.37 571.31,404.84 C572.04,405.45 577.92,406.07 584.56,406.25 C591.13,406.43 597.03,406.67 597.68,406.78 C598.33,406.90 599.53,406.32 600.36,405.49 ZM 213.80 401.37 C214.07,397.76 213.81,397.18 211.80,396.71 C207.83,395.80 187.37,396.73 185.14,397.93 C183.04,399.05 182.12,403.79 183.69,405.36 C184.07,405.74 190.94,405.93 198.94,405.78 L 213.50 405.50 L 213.80 401.37 ZM 216.05 385.37 C216.60,383.92 216.78,381.88 216.45,380.84 C215.89,379.07 214.80,378.97 199.67,379.23 L 183.50 379.50 L 183.18 382.33 C182.53,387.97 182.62,388.00 199.49,388.00 L 215.05 388.00 L 216.05 385.37 ZM 603.99 386.51 C604.70,385.66 604.95,383.95 604.59,382.51 L 603.96 380.00 L 588.56 380.00 C580.09,380.00 572.45,380.27 571.58,380.61 C569.95,381.23 569.54,383.65 570.61,386.42 C571.48,388.70 602.10,388.79 603.99,386.51 ZM 428.42 347.75 C429.47,340.98 430.09,336.24 430.98,328.00 C431.49,323.33 432.39,317.92 432.98,316.00 C433.58,314.08 434.70,305.75 435.49,297.50 C436.27,289.25 437.36,279.35 437.90,275.50 C438.92,268.19 438.55,264.65 436.80,265.23 C434.78,265.91 433.17,273.73 432.03,288.46 C431.39,296.68 430.65,303.76 430.38,304.20 C429.81,305.12 427.41,321.48 425.87,335.00 C425.28,340.23 424.27,345.03 423.64,345.68 C422.85,346.50 421.12,346.62 418.00,346.05 C415.52,345.61 396.61,344.94 375.96,344.58 C339.86,343.94 322.00,344.43 322.00,346.05 C322.00,347.21 334.29,347.90 381.00,349.38 C404.38,350.12 424.49,350.79 425.70,350.86 C427.46,350.97 428.01,350.34 428.42,347.75 ZM 313.30 347.37 C313.65,347.02 313.27,345.80 312.46,344.65 C311.57,343.37 310.97,340.02 310.92,336.03 C310.87,332.44 310.45,327.02 309.97,324.00 C307.57,308.60 305.71,298.30 305.00,296.50 C304.56,295.40 303.67,290.67 303.01,286.00 C302.36,281.33 301.47,277.05 301.04,276.50 C300.61,275.95 299.95,273.70 299.57,271.50 C298.72,266.59 296.81,262.00 295.63,262.00 C294.57,262.00 295.55,270.35 297.51,278.00 C298.29,281.02 299.44,288.00 300.08,293.50 C300.72,299.00 301.66,304.03 302.18,304.68 C302.70,305.33 303.53,310.28 304.03,315.68 C304.52,321.08 305.13,327.52 305.39,330.00 C305.93,335.37 307.56,343.81 308.52,346.25 C309.20,347.96 312.04,348.63 313.30,347.37 ZM 450.20 260.18 C452.42,257.94 448.76,256.34 439.75,255.62 C384.67,251.23 306.64,249.45 292.65,252.27 C287.27,253.35 286.68,253.29 285.40,251.53 C284.63,250.48 284.00,247.75 284.00,245.48 C284.00,243.20 283.67,241.01 283.27,240.61 C281.71,239.05 280.02,227.68 281.15,226.32 C282.03,225.26 292.24,224.98 332.87,224.90 C360.72,224.85 397.45,224.49 414.50,224.10 C431.55,223.72 446.50,223.75 447.71,224.17 C449.06,224.63 450.20,224.48 450.62,223.81 C451.79,221.91 447.85,220.00 442.74,220.00 C438.03,220.00 434.00,218.71 434.00,217.19 C434.00,216.79 436.52,213.77 439.60,210.48 C442.68,207.19 446.41,202.70 447.90,200.50 C450.95,195.98 456.45,184.78 457.46,181.00 C457.82,179.62 458.52,177.60 459.00,176.50 C461.75,170.18 462.84,150.72 460.85,143.50 C460.24,141.30 459.77,138.04 459.80,136.25 C459.88,131.72 457.60,130.70 450.06,131.91 C435.06,134.33 413.26,147.40 408.54,156.81 C406.30,161.29 403.75,160.71 402.69,155.49 C402.24,153.30 401.41,150.15 400.85,148.50 C400.28,146.85 399.34,143.70 398.77,141.50 C398.19,139.30 397.04,136.72 396.22,135.77 C395.40,134.82 394.62,133.02 394.49,131.77 C394.36,130.52 394.20,128.91 394.13,128.19 C394.06,127.47 393.61,127.12 393.14,127.41 C392.46,127.84 387.89,120.82 386.12,116.62 C385.91,116.12 384.91,114.77 383.91,113.61 C375.52,103.96 369.63,99.00 366.58,99.00 C364.90,99.00 354.85,108.67 348.75,116.15 C342.20,124.18 334.73,141.76 333.14,152.85 C332.31,158.62 330.40,159.19 326.22,154.92 C324.52,153.17 322.23,151.24 321.13,150.62 C320.04,150.01 316.98,148.22 314.32,146.65 C298.18,137.10 268.66,132.22 272.90,139.79 C273.38,140.65 273.54,143.98 273.25,147.19 C272.70,153.24 274.65,167.67 276.15,168.59 C276.62,168.88 277.00,170.01 277.00,171.09 C277.00,173.41 280.64,182.52 285.77,193.00 C289.27,200.14 290.03,201.41 292.62,204.33 C293.24,205.03 294.52,207.11 295.48,208.96 C296.44,210.81 298.29,213.48 299.61,214.90 C303.88,219.50 302.43,220.58 291.00,221.32 C275.73,222.30 276.61,221.52 277.42,233.25 C277.80,238.72 278.50,243.94 278.98,244.85 C279.46,245.76 280.39,248.63 281.05,251.23 C282.48,256.89 284.18,258.70 285.99,256.51 C287.49,254.70 291.13,254.53 292.80,256.20 C293.73,257.13 294.75,257.13 297.39,256.18 C300.98,254.88 324.56,255.12 379.50,257.01 C401.09,257.76 435.69,260.36 436.64,261.31 C437.54,262.20 449.16,261.23 450.20,260.18 ZM 450.79 238.99 C451.12,226.98 449.98,222.46 448.90,231.50 C448.50,234.80 447.86,239.62 447.46,242.20 C446.67,247.45 447.36,250.38 449.25,249.75 C450.12,249.46 450.59,246.16 450.79,238.99 ZM 299.02 416.53 C298.35,415.72 296.20,414.48 294.24,413.78 C291.36,412.75 290.23,411.49 288.34,407.22 C285.50,400.82 285.49,400.43 287.97,395.30 C289.33,392.49 290.92,390.88 293.08,390.12 C294.80,389.52 297.48,387.58 299.03,385.80 L 301.85 382.57 L 302.55 385.32 C303.01,387.16 304.52,388.74 307.09,390.04 C312.00,392.55 313.00,394.52 313.00,401.71 C313.00,407.95 311.62,410.15 304.17,415.75 C300.64,418.41 300.59,418.42 299.02,416.53 ZM 308.57 218.43 C307.71,217.56 307.00,216.33 306.99,215.68 C306.99,215.03 305.52,212.93 303.73,211.00 C297.84,204.68 287.53,187.32 285.02,179.50 C284.32,177.30 283.42,175.05 283.03,174.50 C282.65,173.95 281.76,170.80 281.05,167.50 C280.35,164.20 279.38,161.01 278.90,160.41 C278.42,159.81 277.91,155.31 277.76,150.41 L 277.50 141.50 L 281.23 141.19 C286.39,140.76 299.00,144.49 306.90,148.77 C310.53,150.74 314.41,152.83 315.53,153.42 C316.65,154.02 319.62,156.19 322.14,158.25 C324.65,160.31 327.25,162.00 327.90,162.00 C329.84,162.00 332.09,168.72 332.03,174.32 C331.94,183.53 332.48,190.47 333.39,191.89 C334.66,193.86 335.48,207.00 334.33,207.00 C333.81,207.00 331.31,204.18 328.78,200.72 C322.34,191.96 310.73,180.00 308.66,180.00 C307.18,180.00 307.10,180.33 308.12,182.25 C308.77,183.49 310.38,185.51 311.70,186.75 C313.02,187.99 313.83,189.00 313.49,189.00 C313.15,189.00 314.47,190.69 316.43,192.75 C318.38,194.81 319.99,196.98 319.99,197.57 C320.00,198.16 321.01,199.56 322.25,200.68 C325.47,203.59 327.91,206.75 327.37,207.30 C327.11,207.55 328.71,209.85 330.91,212.40 C336.91,219.32 336.11,220.00 321.96,220.00 C312.55,220.00 309.82,219.68 308.57,218.43 ZM 345.25 218.44 C344.56,217.69 344.00,215.07 344.00,212.60 C344.00,210.14 343.61,207.88 343.14,207.59 C341.72,206.71 338.71,194.78 338.86,190.60 C338.94,188.46 338.56,186.17 338.01,185.52 C336.63,183.85 336.43,161.22 337.76,157.00 C338.37,155.07 339.41,150.39 340.07,146.60 C340.73,142.80 341.89,138.52 342.63,137.10 C343.38,135.67 343.99,134.19 343.99,133.80 C344.01,132.03 351.87,119.76 357.33,113.00 C360.65,108.88 363.53,105.30 363.72,105.06 C364.39,104.18 369.98,104.22 369.44,105.10 C369.13,105.59 369.36,106.00 369.94,106.00 C370.52,106.00 371.00,106.72 371.00,107.59 C371.00,108.47 371.89,109.42 372.99,109.71 C374.08,109.99 374.77,110.56 374.52,110.96 C374.27,111.37 374.85,112.55 375.80,113.60 C382.02,120.43 390.31,134.97 393.00,143.77 C393.63,145.82 394.52,148.40 394.99,149.50 C397.03,154.33 399.18,170.82 398.69,178.00 C397.91,189.51 396.06,200.25 394.45,202.71 C393.65,203.93 393.00,205.66 393.00,206.56 C393.00,207.46 392.31,210.56 391.47,213.45 L 389.94 218.71 L 379.73 219.28 C372.99,219.65 369.06,219.47 368.19,218.74 C367.25,217.96 365.96,217.95 363.68,218.70 C358.99,220.26 346.77,220.09 345.25,218.44 ZM 366.39 215.42 C366.73,214.55 367.00,202.85 367.00,189.42 C367.00,165.67 366.95,165.00 365.00,165.00 C362.66,165.00 362.73,164.07 362.99,191.25 C363.11,204.17 362.83,210.00 362.08,210.00 C361.49,210.00 361.00,210.68 361.00,211.50 C361.00,212.32 361.40,213.00 361.88,213.00 C362.37,213.00 363.00,213.90 363.29,215.00 C363.92,217.40 365.55,217.62 366.39,215.42 ZM 402.58 218.34 C402.17,217.29 402.87,215.70 404.47,214.03 C405.86,212.58 407.00,211.06 407.00,210.65 C407.00,210.25 407.94,208.92 409.10,207.71 C410.89,205.82 414.71,200.21 421.84,189.00 C424.20,185.28 427.00,179.70 427.00,178.71 C427.00,176.50 425.07,178.60 413.40,193.54 C411.70,195.72 409.60,198.85 408.74,200.50 C406.79,204.23 400.27,210.60 399.35,209.68 C398.97,209.30 399.16,207.99 399.77,206.75 C401.68,202.88 404.19,187.00 404.86,174.61 C405.41,164.33 405.76,162.56 407.42,161.61 C408.47,161.00 411.70,158.40 414.59,155.83 C427.52,144.34 448.03,134.54 454.23,136.90 C456.58,137.79 456.65,138.12 456.83,149.66 C457.01,161.41 456.44,166.41 453.70,177.00 C452.22,182.71 446.62,194.05 442.74,199.17 C438.41,204.88 426.69,217.51 424.61,218.71 C423.37,219.43 418.53,219.94 412.86,219.96 C404.77,219.99 403.11,219.73 402.58,218.34 Z" fill="rgb(254,254,254)"/>
</g>
</svg>